<svg width="662" height="430" viewBox="0 0 662 430" fill="none" xmlns="http://www.w3.org/2000/svg">
<path d="M600.352 3.22563L535.948 6.67722L535.984 9.0619C539.571 149.295 450.332 268.348 336.993 274.419C282.231 277.341 230.003 253.624 189.924 207.578C149.846 161.533 126.816 98.8368 125.063 31.0191L124.994 28.6585L60.5893 32.1101L6.92024e-06 35.3364L0.0691548 37.697C2.84402 146.852 39.9018 247.716 104.362 321.685C136.548 358.673 173.684 386.731 213.782 404.934C253.879 423.137 296.905 431.509 340.957 429.117C396.51 426.173 448.462 406.318 493.689 373.773C596.835 299.549 665.016 159.166 661.011 2.35993L660.942 -0.000657948L600.352 3.22563Z" fill="#B0CCFC"/>
</svg>
