<svg width="662" height="430" viewBox="0 0 662 430" fill="none" xmlns="http://www.w3.org/2000/svg">
<path d="M60.8259 426.292L125.23 422.84L125.194 420.456C121.607 280.222 210.846 161.169 324.185 155.099C378.948 152.176 431.175 175.894 471.254 221.939C511.333 267.984 534.362 330.681 536.116 398.498L536.185 400.859L600.589 397.407L661.178 394.181L661.109 391.821C658.334 282.666 621.276 181.802 556.817 107.833C524.63 70.8446 487.494 42.7863 447.396 24.5833C407.299 6.38028 364.274 -1.99147 320.222 0.400411C264.668 3.34477 212.716 23.1992 167.489 55.7445C64.343 129.969 -3.83734 270.352 0.167431 427.158L0.236582 429.518L60.8259 426.292Z" fill="#A3F4CE"/>
</svg>
